<svg width="166" height="51" viewBox="0 0 166 51" fill="none" xmlns="http://www.w3.org/2000/svg">
<g clip-path="url(#clip0_1_10)">
<path fill-rule="evenodd" clip-rule="evenodd" d="M3.81464 24.4237L7.13215 23.6315C7.05398 24.2651 7.05398 24.8906 7.13316 25.507L3.81464 24.4237Z" fill="white"/>
<path fill-rule="evenodd" clip-rule="evenodd" d="M14.8717 35.254L19.3398 30.8313C18.4398 31.3765 17.4616 31.8424 16.5004 31.8956C16.1325 33.2119 15.5592 34.252 14.8717 35.254Z" fill="white"/>
<path fill-rule="evenodd" clip-rule="evenodd" d="M14.8567 13.6847L19.3318 18.1004C18.4307 17.5562 17.4525 17.0924 16.4904 17.0412C16.1195 15.7269 15.5442 14.6867 14.8567 13.6847Z" fill="white"/>
<path fill-rule="evenodd" clip-rule="evenodd" d="M14.8967 19.8434C17.1398 19.8424 19.0221 21.4106 19.4591 23.4869L18.54 24.5482L19.3789 25.6526C18.8246 27.5643 17.0276 28.9729 14.9048 28.9739C12.5314 28.9759 10.5619 27.2179 10.2823 24.9598L12.0052 24.9588C12.2688 26.2922 13.4695 27.3042 14.9048 27.3032C15.9211 27.3022 16.8191 26.7942 17.3493 26.0231C17.3804 25.511 17.2641 25.6175 16.9895 25.4508L13.705 25.4528L13.704 23.6124C14.8015 23.6114 15.9 23.6114 16.9975 23.6104C17.3593 23.5181 17.5387 23.4217 17.4896 23.0181C16.9865 22.1215 16.0133 21.513 14.9008 21.5141C13.3663 21.5151 12.1014 22.6747 11.9651 24.1456L10.2572 24.1466C10.3935 21.754 12.4241 19.8454 14.8967 19.8434Z" fill="white"/>
<path fill-rule="evenodd" clip-rule="evenodd" d="M14.9098 17.3876C18.6573 17.3845 21.7493 20.2319 22.0489 23.8363H20.768C20.4744 20.9237 17.9557 18.6365 14.9118 18.6386C11.6724 18.6406 9.03246 21.2339 9.03446 24.4116C9.03747 27.5904 11.6815 30.1787 14.9208 30.1767C17.7572 30.1747 20.1346 28.1857 20.6798 25.5562L21.9768 25.5552C21.4155 28.8775 18.4638 31.4257 14.9218 31.4277C10.9799 31.4307 7.76258 28.2791 7.75958 24.4116C7.75457 20.5462 10.9678 17.3906 14.9098 17.3876Z" fill="white"/>
<path fill-rule="evenodd" clip-rule="evenodd" d="M14.8957 9.80522L29.7524 24.4277L14.9178 39.1416L0 24.4498L14.8957 9.80522ZM14.8997 11.6245L1.77803 24.4488L14.9198 37.253L27.9112 24.4297L14.8997 11.6245Z" fill="white"/>
<path fill-rule="evenodd" clip-rule="evenodd" d="M142.31 34.0833C132.078 37.744 119.69 41.1687 105.76 44.0301C59.4196 53.5402 13.1257 53.2882 2.70112 43.4679C-0.734665 40.2349 0.144326 36.3564 4.5052 32.2721C2.50367 34.8213 2.23005 37.2801 3.97601 39.5161C11.6253 49.3153 55.174 51.238 100.926 43.7922C116.832 41.2058 130.964 37.8163 142.31 34.0833Z" fill="white"/>
<path fill-rule="evenodd" clip-rule="evenodd" d="M27.1725 17.1888C37.1963 13.4699 49.3307 9.98996 62.9776 7.08233C108.372 -2.58032 153.722 -2.32329 163.934 7.65361C167.3 10.9388 166.439 14.8795 162.166 19.0281C164.127 16.4388 164.395 13.9408 162.685 11.6687C155.192 1.71185 112.532 -0.241967 67.7134 7.3243C52.1321 9.95181 38.2877 13.3956 27.1725 17.1888Z" fill="white"/>
<path fill-rule="evenodd" clip-rule="evenodd" d="M42.3209 33.1486H37.7204L37.967 28.0361H35.751L34.6314 33.1486H30.032L35.0524 13.9066H42.4391L42.3209 33.1486ZM38.0813 25.9187L38.5634 16.2701H38.2947L36.201 25.9187H38.0813ZM52.1772 33.1486H48.4026L49.3718 25.8875H48.1851L47.216 33.1486H43.4414L45.5041 17.6988H49.2786L48.4127 24.1877H49.5983L50.4653 17.6988H54.2399L52.1772 33.1486ZM63.1641 33.1486L63.2583 17.6988H57.3279L53.2977 33.1486H56.9911L57.8891 29.0432H59.6682L59.4707 33.1486H63.1641ZM59.7604 27.3434H58.2509L59.9328 19.5974H60.1482L59.7604 27.3434ZM73.6107 33.1486H69.8362L71.6723 19.3986H70.4586L68.9913 30.3896C68.883 31.1988 68.6776 31.7942 68.3749 32.1777C67.8567 32.8253 67.0048 33.1486 65.8191 33.1486H63.7975L64.024 31.4488H64.4009C64.5813 31.4488 64.7457 31.3936 64.895 31.2831C65.0443 31.1727 65.1395 30.9699 65.1786 30.6767L66.9116 17.6988H75.6734L73.6107 33.1486ZM84.4613 33.1486L86.524 17.6988H82.7494L80.1586 25.4016H80.0233L81.0516 17.6988H77.277L75.2144 33.1486H78.9889L81.5808 25.4458H81.7161L80.6878 33.1486H84.4613ZM95.7198 19.3986H93.4557L91.6195 33.1486H87.845L89.6811 19.3986H87.417L87.6445 17.6988H95.9483L95.7198 19.3986ZM103.738 33.1486L105.801 17.6988H97.0659L95.0032 33.1486H98.7777L100.614 19.3986H101.801L99.9644 33.1486H103.738ZM115.147 25.1365C115.043 25.9167 114.828 26.513 114.503 26.9247C113.985 27.5723 113.142 27.8956 111.975 27.8956H109.818L109.116 33.1486H105.342L107.404 17.6988H113.336C114.504 17.6988 115.26 18.0231 115.606 18.6697C115.822 19.0673 115.877 19.6626 115.771 20.4578L115.147 25.1365ZM111.334 25.4237L112.036 20.1717C112.104 19.6566 111.905 19.3986 111.437 19.3986H110.952L110.045 26.1958H110.53C110.997 26.1958 111.265 25.9377 111.334 25.4237ZM124.767 33.1486L126.829 17.6988H123.055L120.463 25.4016H120.329L121.357 17.6988H117.582L115.52 33.1486H119.294L121.886 25.4458H122.021L120.993 33.1486H124.767ZM135.474 30.3896C135.37 31.1687 135.155 31.7651 134.83 32.1777C134.312 32.8253 133.469 33.1486 132.302 33.1486H126.371L128.434 17.6988H136.792L136.564 19.3986H131.981L131.383 23.8785H133.539C134.708 23.8785 135.464 24.2018 135.81 24.8494C136.026 25.247 136.081 25.8424 135.976 26.6365L135.474 30.3896ZM131.661 30.6767L132.239 26.3504C132.308 25.8353 132.108 25.5773 131.641 25.5773H131.156L130.372 31.4478H130.857C131.324 31.4488 131.592 31.1908 131.661 30.6767ZM145.813 30.3896C145.709 31.1687 145.495 31.7651 145.17 32.1777C144.652 32.8253 143.809 33.1486 142.641 33.1486H139.513C138.345 33.1486 137.589 32.8253 137.243 32.1777C137.026 31.7801 136.971 31.1847 137.077 30.3896L138.403 20.4578C138.508 19.6777 138.722 19.0813 139.047 18.6697C139.564 18.0221 140.407 17.6988 141.576 17.6988H144.703C145.871 17.6988 146.628 18.0231 146.973 18.6697C147.189 19.0673 147.245 19.6626 147.138 20.4578L145.813 30.3896ZM141.965 30.9408L143.439 19.9056C143.484 19.5673 143.309 19.3986 142.914 19.3986C142.752 19.3986 142.608 19.4347 142.481 19.509C142.354 19.5823 142.278 19.7149 142.252 19.9066L140.779 30.9418C140.734 31.2801 140.908 31.4488 141.304 31.4488C141.52 31.4488 141.68 31.3896 141.786 31.2721C141.892 31.1546 141.952 31.0442 141.965 30.9408ZM156.853 25.1365L157.479 20.4578C157.584 19.6626 157.529 19.0673 157.313 18.6697C156.968 18.0221 156.211 17.6988 155.043 17.6988H149.112L147.048 33.1486H150.824L151.524 27.8956H153.681C154.849 27.8956 155.692 27.5723 156.21 26.9247C156.535 26.512 156.749 25.9167 156.853 25.1365ZM153.041 25.4237C152.972 25.9388 152.704 26.1958 152.237 26.1958H151.752L152.659 19.3986H153.144C153.612 19.3986 153.81 19.6556 153.742 20.1717L153.041 25.4237Z" fill="white"/>
<path d="M30.9688 44V36H35.7969V36.8594H31.9375V39.3594H33.9688C34.5417 39.3594 35.0247 39.4531 35.418 39.6406C35.8138 39.8281 36.1133 40.0924 36.3164 40.4336C36.5221 40.7747 36.625 41.1771 36.625 41.6406C36.625 42.1042 36.5221 42.513 36.3164 42.8672C36.1133 43.2214 35.8138 43.4987 35.418 43.6992C35.0247 43.8997 34.5417 44 33.9688 44H30.9688ZM31.9375 43.1562H33.9688C34.3333 43.1562 34.6419 43.0833 34.8945 42.9375C35.1497 42.7891 35.3424 42.599 35.4727 42.3672C35.6055 42.1328 35.6719 41.8854 35.6719 41.625C35.6719 41.2422 35.5247 40.9128 35.2305 40.6367C34.9362 40.3581 34.5156 40.2188 33.9688 40.2188H31.9375V43.1562ZM39.0166 42.6406L41.9072 38H42.9697V44H42.0479V39.3594L39.1729 44H38.0947V38H39.0166V42.6406ZM44.6582 38H45.5801V43.1406H47.8457V38H48.7676V43.1406H51.0332V38H51.9551V44H44.6582V38ZM53.6387 44V38H54.5605V40.6094H55.1699L57.3262 38H58.5137L56.0918 40.8906L58.5449 44H57.3574L55.3887 41.4687H54.5605V44H53.6387ZM61.8154 44.125C61.2373 44.125 60.7386 43.9974 60.3193 43.7422C59.9027 43.4844 59.5811 43.125 59.3545 42.6641C59.1305 42.2005 59.0186 41.6615 59.0186 41.0469C59.0186 40.4323 59.1305 39.8906 59.3545 39.4219C59.5811 38.9505 59.8962 38.5833 60.2998 38.3203C60.7061 38.0547 61.18 37.9219 61.7217 37.9219C62.0342 37.9219 62.3428 37.974 62.6475 38.0781C62.9521 38.1823 63.2295 38.3516 63.4795 38.5859C63.7295 38.8177 63.9287 39.125 64.0771 39.5078C64.2256 39.8906 64.2998 40.362 64.2998 40.9219V41.3125H59.6748V40.5156H63.3623C63.3623 40.1771 63.2946 39.875 63.1592 39.6094C63.0264 39.3437 62.8363 39.1341 62.5889 38.9805C62.3441 38.8268 62.055 38.75 61.7217 38.75C61.3545 38.75 61.0368 38.8411 60.7686 39.0234C60.5029 39.2031 60.2985 39.4375 60.1553 39.7266C60.012 40.0156 59.9404 40.3255 59.9404 40.6562V41.1875C59.9404 41.6406 60.0186 42.0247 60.1748 42.3398C60.3337 42.6523 60.5537 42.8906 60.835 43.0547C61.1162 43.2161 61.443 43.2969 61.8154 43.2969C62.0576 43.2969 62.2764 43.263 62.4717 43.1953C62.6696 43.125 62.8402 43.0208 62.9834 42.8828C63.1266 42.7422 63.2373 42.5677 63.3154 42.3594L64.2061 42.6094C64.1123 42.9115 63.9548 43.1771 63.7334 43.4062C63.512 43.6328 63.2386 43.8099 62.9131 43.9375C62.5876 44.0625 62.2217 44.125 61.8154 44.125ZM65.7021 44V38H66.624V40.6094H67.2334L69.3896 38H70.5771L68.1553 40.8906L70.6084 44H69.4209L67.4521 41.4687H66.624V44H65.7021Z" fill="white"/>
</g>
<defs>
<clipPath id="clip0_1_10">
<rect width="166" height="51" fill="white"/>
</clipPath>
</defs>
</svg>
